<svg width="61" height="61" viewBox="0 0 61 61" fill="none" xmlns="http://www.w3.org/2000/svg">
<path d="M48.2089 12.7106V6.75403H12.4796V12.7106H6.52124V18.6713H54.1631V12.7106H48.2089ZM48.2089 30.5928H36.3005V24.6321H24.388V30.5928H12.4796V24.6321H6.52124V48.4709H12.4796V54.4317H48.2089V48.4709H54.1631V24.6321H48.2089V30.5928ZM48.2089 42.5123H42.2547V48.4688H18.4338V42.5123H12.4796V36.5494H18.4338V42.5123H42.2547V36.5494H48.2089V42.5123Z" fill="#FFE501"/>
<path d="M12.4796 0.791138V6.75399H48.2088V0.791138H12.4796ZM48.2088 6.75399V12.7105H54.163V6.75399H48.2088ZM6.5212 12.7105H12.4796V6.75399H6.5212V12.7105ZM6.5212 48.4709V54.4316H12.4796V48.4709H6.5212ZM48.2088 54.4316H54.163V48.4709H48.2088V54.4316ZM12.4796 60.3903H48.2088V54.4316H12.4796V60.3903ZM54.163 12.7105V18.6713H60.1214V12.7105H54.163ZM54.163 48.4709H60.1214V24.6321H54.163V48.4709ZM0.567017 18.6734H6.5212V12.7105L0.567017 12.7126V18.6734ZM0.567017 24.6321V48.4709H6.5212V24.6321H0.567017Z" fill="#BFAB01"/>
<path d="M0.567017 18.6735V24.6321H12.4796V30.5929H24.3879V24.6321H36.3005V30.5929H48.2088V24.6321H60.1214V18.6735H0.567017ZM12.4796 36.5494V42.5123H18.4338V36.5494H12.4796ZM42.2547 42.5123H48.2088V36.5494H42.2547V42.5123ZM18.4338 48.4709H42.2547V42.5123H18.4338V48.4709Z" fill="#010101"/>
</svg>
