<svg width="61" height="61" viewBox="0 0 61 61" fill="none" xmlns="http://www.w3.org/2000/svg">
<path d="M48.2089 12.4976V6.54102H12.4796V12.4976H6.52124V48.2621H12.4796V54.2229H48.2089V48.2621H54.1631V12.4976H48.2089ZM36.3005 18.4583H42.2547V30.3777H36.3005V18.4583ZM18.4338 18.4583H24.388V30.3777H18.4338V18.4583ZM48.2089 42.2993H42.2547V48.2558H18.4338V42.2993H12.4796V36.3322H18.4338V42.2993H42.2547V36.3322H48.2089V42.2993Z" fill="#FFE501"/>
<path d="M12.4796 6.53891H6.5212V12.4955H12.4796V6.53891ZM0.567017 12.4976V48.2621H6.5212V12.4955L0.567017 12.4976ZM48.2088 0.57605H12.4796V6.53891H48.2088V0.57605ZM54.163 12.4976V6.54102H48.2088V12.4976H54.163ZM6.5212 48.2579V54.2187H12.4796V48.2579H6.5212ZM54.163 12.4976V48.2621H60.1214V12.4976H54.163ZM48.2088 54.2187H54.163V48.2579H48.2088V54.2187ZM12.4796 60.1773H48.2088V54.2187H12.4796V60.1773Z" fill="#BFAB01"/>
<path d="M24.388 18.4584H18.4338V30.3778H24.388V18.4584ZM42.2547 18.4584H36.3005V30.3778H42.2547V18.4584ZM12.4796 36.3364V42.3035H18.4338V36.3364H12.4796ZM42.2547 36.3364V42.3035H48.2089V36.3364H42.2547ZM18.4338 48.258H42.2547V42.3035H18.4338V48.258Z" fill="#010101"/>
</svg>
