<svg width="61" height="61" viewBox="0 0 61 61" fill="none" xmlns="http://www.w3.org/2000/svg">
<path d="M12.5758 54.4296H48.3134V48.4709H12.5758V54.4296ZM48.3134 12.7106V6.75195H12.5758V12.7106H6.62158V48.4709H12.5758V42.5123H48.3134V48.4709H54.2676V12.7106H48.3134ZM24.4904 30.5908H18.5341V18.6714H24.4904V30.5908ZM42.3593 30.5908H36.3988V18.6714H42.3593V30.5908Z" fill="#91FF9F"/>
<path d="M48.3134 0.791138H12.5757V6.75189H48.3134V0.791138ZM54.2675 12.7105V6.75189H48.3134V12.7105H54.2675ZM12.5757 6.75189H6.62151V12.7105H12.5757V6.75189ZM6.62361 48.4709V54.4295H12.5778V48.4709H6.62361ZM48.3134 54.4295H54.2675V48.4709H48.3134V54.4295ZM12.5757 60.3903H48.3134V54.4295H12.5778L12.5757 60.3903ZM54.2675 12.7105V48.4709H60.2217V12.7105H54.2675ZM0.669434 12.7105V48.4709H6.62361L6.62151 12.7105H0.669434Z" fill="#2BEB41"/>
<path d="M24.4903 18.6713H18.5341V30.5907H24.4903V18.6713ZM42.3592 18.6713H36.3987V30.5907H42.3592V18.6713ZM12.5757 42.5101V48.4687H48.3134V42.5101H12.5757Z" fill="#010101"/>
</svg>
