<svg width="61" height="61" viewBox="0 0 61 61" fill="none" xmlns="http://www.w3.org/2000/svg">
<path d="M48.3114 12.4976V6.54102H12.5821V12.4976H6.62793V48.2621H12.5821V54.2229H48.3114V48.2621H54.2698V12.4976H48.3114ZM18.5363 18.4583H24.4905V30.3777H18.5363V18.4583ZM42.3572 48.2579H18.5363V42.3014H42.3572V48.2579ZM42.3572 30.3798H36.403V18.4583H42.3572V30.3798Z" fill="#FFE501"/>
<path d="M48.3114 0.57605H12.5821V6.53891H48.3114V0.57605ZM54.2697 12.4976V6.54102H48.3114V12.4976H54.2697ZM12.5821 6.53891H6.62791V12.4955H12.5821V6.53891ZM6.62791 48.2579V54.2187H12.5821V48.2579H6.62791ZM48.3114 54.2187H54.2697V48.2579H48.3114V54.2187ZM12.5821 60.1773H48.3114V54.2187H12.5821V60.1773ZM54.2697 12.4976V48.2621H60.2239V12.4976H54.2697ZM0.671631 12.4976V48.2621H6.63001V12.4976H0.671631Z" fill="#BFAB01"/>
<path d="M36.4031 18.4584V30.3778H42.3573V18.4584H36.4031ZM24.4906 18.4584H18.5364V30.3778H24.4906V18.4584ZM18.5364 48.258H42.3573V42.3014H18.5364V48.258Z" fill="#010101"/>
</svg>
