<svg width="61" height="61" viewBox="0 0 61 61" fill="none" xmlns="http://www.w3.org/2000/svg">
<path d="M48.5204 18.6714V12.7127H42.5662V6.75195H18.7411V12.7106H36.6057V18.6693H42.5662V24.63H36.6057V30.5887H30.6516V36.5473H24.7037V30.5887H30.6516V24.63H36.6057V18.6693H18.7411V12.7106H12.7869V18.6693H6.83276V42.5102H12.7869V48.4688H18.7411V54.4275H42.5662V48.4688H48.5204V42.5102H54.4746V18.6714H48.5204ZM30.6516 48.4709H24.7016V42.5123H30.6516V48.4709Z" fill="#FFE501"/>
<path d="M12.787 12.7105H6.83284V18.6692H12.787V12.7105ZM42.5663 0.791138H18.7412V6.75189H42.5663V0.791138ZM54.4747 18.6713V12.7126H48.5205V18.6713H54.4747ZM0.878662 18.6713V42.5122H6.83284V18.6692L0.878662 18.6713ZM48.5205 12.7126V6.75189H42.5663V12.7105L48.5205 12.7126ZM18.7412 6.75189H12.787V12.7105H18.7412V6.75189ZM42.5663 54.4295H48.5205V48.4709H42.5663V54.4295ZM48.5205 48.4709H54.4747V42.5122H48.5205V48.4709ZM54.4747 18.6713V42.5122H60.4288V18.6713H54.4747ZM18.7412 60.3903H42.5663V54.4295H18.7412V60.3903ZM12.787 48.4709V54.4295H18.7412V48.4709H12.787ZM6.83284 42.5122V48.4688L12.787 48.4709V42.5101L6.83284 42.5122Z" fill="#BFAB01"/>
<path d="M24.7017 36.5494H30.6516V30.5907H24.7017V36.5494ZM30.6516 30.5907H36.6058V24.6321H30.6516V30.5907ZM24.7017 48.4709H30.6516V42.5122H24.7017V48.4709ZM36.6058 18.6713V24.6321H42.5663V18.6713H36.6058ZM18.7412 12.7106V18.6692L36.6058 18.6713V12.7106H18.7412Z" fill="#010101"/>
</svg>
