<svg width="61" height="61" viewBox="0 0 61 61" fill="none" xmlns="http://www.w3.org/2000/svg">
<path d="M48.5203 12.4976V6.54102H12.7889V12.4976H6.83057V48.2621H12.7889V54.2229H48.5203V48.2621H54.4787V12.4976H48.5203ZM36.612 18.4583H42.5661V30.3777H36.612V18.4583ZM12.7889 18.4583H18.7431V24.417H24.6973V30.3777H18.7431V24.417H12.7889V18.4583ZM48.5203 42.2993H42.5661V48.2558H18.7431V42.2993H12.7889V36.3322H18.7431V42.2993H42.5661V36.3322H48.5203V42.2993Z" fill="#FFE501"/>
<path d="M48.5204 0.57605H12.789V6.53891H48.5204V0.57605ZM54.4788 12.4976V6.54102H48.5204V12.4976H54.4788ZM12.789 6.53891H6.83064V12.4955H12.789V6.53891ZM6.83064 48.2579V54.2187H12.789V48.2579H6.83064ZM48.5204 54.2187H54.4788V48.2579H48.5204V54.2187ZM12.789 60.1773H48.5204V54.2187H12.789V60.1773ZM54.4788 12.4976V48.2621H60.433V12.4976H54.4788ZM0.876465 12.4976V48.2621H6.83064V12.4955L0.876465 12.4976Z" fill="#BFAB01"/>
<path d="M18.7432 18.4584H12.7891V24.417H18.7432V18.4584ZM24.6974 30.3799V24.4191L18.7432 24.417V30.3799H24.6974ZM42.5663 18.4584H36.6121V30.3778H42.5663V18.4584ZM12.7891 36.3364V42.3035H18.7432V36.3364H12.7891ZM42.5663 36.3364V42.3035H48.5204V36.3364H42.5663ZM18.7432 48.258H42.5663V42.3035H18.7432V48.258Z" fill="#010101"/>
</svg>
