<svg width="61" height="61" viewBox="0 0 61 61" fill="none" xmlns="http://www.w3.org/2000/svg">
<path d="M12.6866 54.4296H48.4159V48.4709H12.6866V54.4296ZM48.4159 12.7106V6.75195H12.6866V12.7106H6.73242V48.4709H12.6866V42.5123H48.4159V48.4709H54.3742V12.7106H48.4159ZM24.595 30.5908H18.6408V24.6321H12.6866V18.6714H18.6408V24.6321H24.595V30.5908ZM48.4159 24.6321H42.4617V30.5908H36.5075V24.6321H42.4617V18.6714H48.4159V24.6321Z" fill="#FFC1C1"/>
<path d="M48.4157 0.791138H12.6865V6.75189H48.4157V0.791138ZM54.3741 12.7105V6.75189H48.4157V12.7105H54.3741ZM12.6865 6.75189H6.7323V12.7105H12.6865V6.75189ZM6.7323 48.4709V54.4295H12.6865V48.4709H6.7323ZM48.4157 54.4295H54.3741V48.4709H48.4157V54.4295ZM12.6865 60.3903H48.4157V54.4295H12.6865V60.3903ZM54.3741 12.7105V48.4709H60.3283V12.7105H54.3741ZM0.773926 12.7105V48.4709H6.7323V12.7105H0.773926Z" fill="#FF7777"/>
<path d="M42.4616 18.6713V24.632H48.4158V18.6713H42.4616ZM18.6407 18.6713H12.6865V24.632H18.6407V18.6713ZM24.5949 30.5907V24.632H18.6407V30.5907H24.5949ZM36.5074 30.5907H42.4616V24.632H36.5074V30.5907ZM12.6865 48.4708H48.4158V42.5122H12.6865V48.4708Z" fill="#010101"/>
</svg>
