<svg width="61" height="61" viewBox="0 0 61 61" fill="none" xmlns="http://www.w3.org/2000/svg">
<path d="M42.4617 42.2993H18.6408V48.2558H12.6866V54.2166H48.4159V48.2558H42.4617V42.2993ZM48.4159 12.4976V6.54102H12.6866V12.4976H6.73242V48.2621H12.6866V42.3014L18.6408 42.2993V36.3343H42.4617V42.2993L48.4159 42.3014V48.2558L54.3742 48.2579V12.4976H48.4159ZM24.595 30.3798H18.6408V18.4583H24.595V30.3798ZM42.4617 30.3798H36.5075V18.4583H42.4617V30.3798Z" fill="#FFE501"/>
<path d="M48.4157 0.57605H12.6865V6.53891H48.4157V0.57605ZM54.3741 12.4976V6.54102H48.4157V12.4976H54.3741ZM12.6865 6.53891H6.7323V12.4955H12.6865V6.53891ZM6.7323 48.2579V54.2187H12.6865V48.2579H6.7323ZM48.4157 54.2187H54.3741V48.2579H48.4157V54.2187ZM12.6865 60.1773H48.4157V54.2187H12.6865V60.1773ZM54.3741 12.4976V48.2621H60.3283V12.4976H54.3741ZM0.773926 12.4976V48.2621H6.7323V12.4955L0.773926 12.4976Z" fill="#BFAB01"/>
<path d="M24.5949 18.4584H18.6407V30.3778H24.5949V18.4584ZM42.4616 18.4584H36.5074V30.3778H42.4616V18.4584ZM42.4616 42.2993V48.2559H48.4158V42.2993H42.4616ZM12.6865 48.258H18.6407V42.3014H12.6865V48.258ZM18.6407 36.3364V42.3014L42.4616 42.3035V36.3364H18.6407Z" fill="#010101"/>
</svg>
